<svg xmlns="http://www.w3.org/2000/svg" width="390" height="844" viewBox="0 0 390 844" font-family="Inter,Arial,sans-serif" role="img" aria-label="Campus essentials"><rect x="0" y="0" width="390" height="844" rx="0" fill="#10192a"/><text x="24" y="38" font-size="14" fill="#f2f5ff" font-weight="400">9:41</text><text x="294" y="36" font-size="12" fill="#f2f5ff" font-weight="400">5G   100%</text><text x="24" y="95" font-size="12" fill="#95bfff" font-weight="400">CSA10  /  SHOP B</text><text x="24" y="147" font-size="28" fill="#ffffff" font-weight="700">Campus essentials</text><text x="24" y="176" font-size="14" fill="#b7c6df" font-weight="400">Variant B · clear product list</text><rect x="24" y="209" width="342" height="85" rx="14" fill="#304357"/><text x="42" y="257" font-size="24" fill="#fff" font-weight="700">Study essentials</text><text x="42" y="282" font-size="14" fill="#f2f5ff" font-weight="400">Thoughtful basics for college.</text><rect x="24" y="321" width="342" height="93" rx="14" fill="#202e47"/><rect x="40" y="338" width="47" height="55" rx="4" fill="#d1b38e"/><text x="105" y="361" font-size="20" fill="#fff" font-weight="700">Grid notebook</text><text x="105" y="393" font-size="14" fill="#f2f5ff" font-weight="400">₹249 · A5 · 160 pages</text><rect x="24" y="435" width="342" height="93" rx="14" fill="#202e47"/><rect x="40" y="452" width="47" height="55" rx="4" fill="#a2bbd5"/><text x="105" y="475" font-size="20" fill="#fff" font-weight="700">Daily planner</text><text x="105" y="507" font-size="14" fill="#f2f5ff" font-weight="400">₹299 · Undated</text><a href="../preview.html#b-product" aria-label="View grid notebook"><rect x="24" y="656" width="342" height="54" rx="12" fill="#bbd5ff"/><text x="195.0" y="689" text-anchor="middle" font-size="16" fill="#142038" font-weight="700">View grid notebook</text></a><text x="24" y="806" font-size="12" fill="#93a3bd" font-weight="400">Interactive lab prototype · sample data</text></svg>